{
  "accessors": [
    {
      "name": "Blue_positions",
      "bufferView": 0,
      "byteOffset": 0,
      "componentType": 5126,
      "count": 24,
      "min": [
        -1,
        -1,
        -6
      ],
      "max": [
        1,
        1,
        -4
      ],
      "type": "VEC3"
    },
    {
      "name": "Blue_normals",
      "bufferView": 0,
      "byteOffset": 288,
      "componentType": 5126,
      "count": 24,
      "min": [
        -1,
        -1,
        -1
      ],
      "max": [
        1,
        1,
        1
      ],
      "type": "VEC3"
    },
    {
      "name": "Blue_texcoords",
      "bufferView": 0,
      "byteOffset": 576,
      "componentType": 5126,
      "count": 24,
      "min": [
        0,
        0
      ],
      "max": [
        1,
        1
      ],
      "type": "VEC2"
    },
    {
      "name": "Blue_0_indices",
      "bufferView": 1,
      "byteOffset": 0,
      "componentType": 5123,
      "count": 18,
      "min": [
        0
      ],
      "max": [
        11
      ],
      "type": "SCALAR"
    },
    {
      "name": "Blue_1_indices",
      "bufferView": 1,
      "byteOffset": 36,
      "componentType": 5123,
      "count": 18,
      "min": [
        12
      ],
      "max": [
        23
      ],
      "type": "SCALAR"
    },
    {
      "name": "Green_positions",
      "bufferView": 0,
      "byteOffset": 768,
      "componentType": 5126,
      "count": 24,
      "min": [
        4,
        -1,
        -1
      ],
      "max": [
        6,
        1,
        1
      ],
      "type": "VEC3"
    },
    {
      "name": "Green_normals",
      "bufferView": 0,
      "byteOffset": 1056,
      "componentType": 5126,
      "count": 24,
      "min": [
        -1,
        -1,
        -1
      ],
      "max": [
        1,
        1,
        1
      ],
      "type": "VEC3"
    },
    {
      "name": "Green_texcoords",
      "bufferView": 0,
      "byteOffset": 1344,
      "componentType": 5126,
      "count": 24,
      "min": [
        0,
        0
      ],
      "max": [
        1,
        1
      ],
      "type": "VEC2"
    },
    {
      "name": "Green_0_indices",
      "bufferView": 1,
      "byteOffset": 72,
      "componentType": 5123,
      "count": 18,
      "min": [
        0
      ],
      "max": [
        11
      ],
      "type": "SCALAR"
    },
    {
      "name": "Green_1_indices",
      "bufferView": 1,
      "byteOffset": 108,
      "componentType": 5123,
      "count": 18,
      "min": [
        12
      ],
      "max": [
        23
      ],
      "type": "SCALAR"
    },
    {
      "name": "Red_positions",
      "bufferView": 0,
      "byteOffset": 1536,
      "componentType": 5126,
      "count": 24,
      "min": [
        -1,
        -1,
        -1
      ],
      "max": [
        1,
        1,
        1
      ],
      "type": "VEC3"
    },
    {
      "name": "Red_normals",
      "bufferView": 0,
      "byteOffset": 1824,
      "componentType": 5126,
      "count": 24,
      "min": [
        -1,
        -1,
        -1
      ],
      "max": [
        1,
        1,
        1
      ],
      "type": "VEC3"
    },
    {
      "name": "Red_texcoords",
      "bufferView": 0,
      "byteOffset": 2112,
      "componentType": 5126,
      "count": 24,
      "min": [
        0,
        0
      ],
      "max": [
        1,
        1
      ],
      "type": "VEC2"
    },
    {
      "name": "Red_0_indices",
      "bufferView": 1,
      "byteOffset": 144,
      "componentType": 5123,
      "count": 18,
      "min": [
        0
      ],
      "max": [
        11
      ],
      "type": "SCALAR"
    },
    {
      "name": "Red_1_indices",
      "bufferView": 1,
      "byteOffset": 180,
      "componentType": 5123,
      "count": 18,
      "min": [
        12
      ],
      "max": [
        23
      ],
      "type": "SCALAR"
    }
  ],
  "asset": {
    "generator": "obj2gltf",
    "version": "2.0"
  },
  "buffers": [
    {
      "name": "buffer",
      "byteLength": 2520,
      "uri": "data:application/octet-stream;base64,"
    }
  ],
  "bufferViews": [
    {
      "name": "bufferView_vertex",
      "buffer": 0,
      "byteLength": 2304,
      "byteOffset": 0,
      "target": 34962
    },
    {
      "name": "bufferView_index",
      "buffer": 0,
      "byteLength": 216,
      "byteOffset": 2304,
      "target": 34963
    }
  ],
  "materials": [
    {
      "name": "Blue",
      "pbrMetallicRoughness": {
        "baseColorFactor": [
          0,
          0,
          0.64,
          1
        ],
        "metallicFactor": 0,
        "roughnessFactor": 0.903921569
      },
      "emissiveFactor": [
        0,
        0,
        0
      ],
      "alphaMode": "OPAQUE",
      "doubleSided": false
    },
    {
      "name": "Green",
      "pbrMetallicRoughness": {
        "baseColorFactor": [
          0,
          0.64,
          0,
          1
        ],
        "metallicFactor": 0,
        "roughnessFactor": 0.903921569
      },
      "emissiveFactor": [
        0,
        0,
        0
      ],
      "alphaMode": "OPAQUE",
      "doubleSided": false
    },
    {
      "name": "Red",
      "pbrMetallicRoughness": {
        "baseColorFactor": [
          0.64,
          0,
          0,
          1
        ],
        "metallicFactor": 0,
        "roughnessFactor": 0.903921569
      },
      "emissiveFactor": [
        0,
        0,
        0
      ],
      "alphaMode": "OPAQUE",
      "doubleSided": false
    }
  ],
  "meshes": [
    {
      "name": "Blue",
      "primitives": [
        {
          "attributes": {
            "POSITION": 0,
            "NORMAL": 1,
            "TEXCOORD_0": 2
          },
          "indices": 3,
          "material": 0,
          "mode": 4
        },
        {
          "attributes": {
            "POSITION": 0,
            "NORMAL": 1,
            "TEXCOORD_0": 2
          },
          "indices": 4,
          "material": 1,
          "mode": 4
        }
      ]
    },
    {
      "name": "Green",
      "primitives": [
        {
          "attributes": {
            "POSITION": 5,
            "NORMAL": 6,
            "TEXCOORD_0": 7
          },
          "indices": 8,
          "material": 1,
          "mode": 4
        },
        {
          "attributes": {
            "POSITION": 5,
            "NORMAL": 6,
            "TEXCOORD_0": 7
          },
          "indices": 9,
          "material": 2,
          "mode": 4
        }
      ]
    },
    {
      "name": "Red",
      "primitives": [
        {
          "attributes": {
            "POSITION": 10,
            "NORMAL": 11,
            "TEXCOORD_0": 12
          },
          "indices": 13,
          "material": 2,
          "mode": 4
        },
        {
          "attributes": {
            "POSITION": 10,
            "NORMAL": 11,
            "TEXCOORD_0": 12
          },
          "indices": 14,
          "material": 0,
          "mode": 4
        }
      ]
    }
  ],
  "nodes": [
    {
      "name": "Cube",
      "children": [
        1,
        2,
        3
      ]
    },
    {
      "name": "Blue",
      "mesh": 0
    },
    {
      "name": "Green",
      "mesh": 1
    },
    {
      "name": "Red",
      "mesh": 2
    }
  ],
  "scene": 0,
  "scenes": [
    {
      "nodes": [
        0
      ]
    }
  ]
}
