# Blender v2.78 (sub 0) OBJ File: 'box-multiple-materials.blend'
# www.blender.org
mtllib box-mtllib-red.mtl
mtllib box-mtllib-green.mtl box-mtllib-blue.mtl 
v -1.000000 -1.000000 1.000000
v -1.000000 1.000000 1.000000
v -1.000000 -1.000000 -1.000000
v -1.000000 1.000000 -1.000000
v 1.000000 -1.000000 1.000000
v 1.000000 1.000000 1.000000
v 1.000000 -1.000000 -1.000000
v 1.000000 1.000000 -1.000000
vt 0.0000 0.0000
vt 1.0000 0.0000
vt 1.0000 1.0000
vt 0.0000 1.0000
vt 0.0000 0.0000
vt 1.0000 0.0000
vt 1.0000 1.0000
vt 0.0000 1.0000
vt 0.0000 0.0000
vt 1.0000 0.0000
vt 1.0000 1.0000
vt 0.0000 1.0000
vt 0.0000 0.0000
vt 1.0000 0.0000
vt 1.0000 1.0000
vt 0.0000 1.0000
vt 1.0000 1.0000
vt 0.0000 1.0000
vt 0.0000 0.0000
vt 1.0000 0.0000
vn 0.0000 -1.0000 0.0000
vn 0.0000 1.0000 0.0000
vn -1.0000 0.0000 0.0000
vn 1.0000 0.0000 0.0000
vn 0.0000 0.0000 -1.0000
vn 0.0000 0.0000 1.0000
usemtl Red
f 3/1/1 7/2/1 5/3/1 1/4/1
usemtl Green
f 1/9/3 2/10/3 4/11/3 3/12/3
usemtl Blue
f 3/1/5 4/6/5 8/17/5 7/18/5
usemtl Red
f 8/5/2 4/6/2 2/7/2 6/8/2
usemtl Green
f 7/13/4 8/14/4 6/15/4 5/16/4
usemtl Blue
f 5/19/6 6/20/6 2/7/6 1/4/6
